#!OML:ASF F:\VICON\USERDATA\INSTALL\rory3\rory3.ASF
:FULLY-SPECIFIED
:DEGREES
824
root 1.16204 17.8407 6.95342 -186.161 -8.32694 542.583
lowerback 20.9 0.480242 1.24181
upperback 2.68953 0.649304 6.57395
thorax -8.83603 0.0141848 6.42103
lowerneck -11.3419 -2.04933 -4.09307
upperneck 20.8391 -2.18611 -3.45199
head 8.36354 -2.04522 -0.75094
rclavicle -1.66979e-014 4.29375e-014
rhumerus -38.4203 -23.1738 -59.5961
rradius 59.3059
rwrist -3.84984
rhand -11.1414 2.47682
rfingers 7.12502
rthumb 14.8843 -26.9685
lclavicle -1.66979e-014 4.29375e-014
lhumerus -46.6867 6.96671 83.7993
lradius 59.0867
lwrist 7.98468
lhand -12.9232 46.2194
lfingers 7.12502
lthumb 13.1673 75.7836
rfemur -9.87155 4.91065 24.4467
rtibia 37.294
rfoot -17.6427 0.985286
rtoes 17.376
lfemur -14.5613 -12.2152 -17.1487
ltibia 44.303
lfoot -14.8447 -5.44132
ltoes -16.262
825
root 1.13127 17.8419 6.93939 -185.962 -7.48522 542.354
lowerback 20.5999 0.485598 0.985128
upperback 2.7752 0.576465 6.45814
thorax -8.57314 -0.0158201 6.44444
lowerneck -10.9094 -1.97012 -3.71523
upperneck 20.0863 -2.06978 -3.8953
head 8.0215 -1.97307 -0.926795
rclavicle 1.63003e-014 3.02153e-014
rhumerus -38.5481 -23.0728 -59.2241
rradius 61.5264
rwrist -3.99136
rhand -10.3956 2.117
rfingers 7.12502
rthumb 15.6027 -27.2737
lclavicle 1.63003e-014 3.02153e-014
lhumerus -46.755 7.20516 83.7654
lradius 58.1977
lwrist 7.65206
lhand -11.9425 47.7817
lfingers 7.12502
lthumb 14.1124 77.2824
rfemur -10.0379 5.10607 24.0879
rtibia 37.2614
rfoot -17.4687 1.63845
rtoes 17.7392
lfemur -14.0682 -12.6533 -17.4892
ltibia 43.1613
lfoot -14.0089 -5.03539
ltoes -13.6608
826
root 1.10065 17.8476 6.92479 -185.842 -6.73141 542.105
lowerback 20.4824 0.460733 0.693716
upperback 2.72912 0.487326 6.35093
thorax -8.55371 -0.0416181 6.51485
lowerneck -10.8468 -1.72096 -3.54703
upperneck 20.1781 -1.75452 -3.99603
head 8.03807 -1.83126 -0.957884
rclavicle 6.55989e-015 3.18055e-014
rhumerus -38.8807 -22.7609 -58.7065
rradius 63.8047
rwrist -4.16204
rhand -9.62558 2.11116
rfingers 7.12502
rthumb 16.3442 -27.2201
lclavicle 6.55989e-015 3.18055e-014
lhumerus -47.2812 7.3842 83.7558
lradius 57.5284
lwrist 7.40291
lhand -11.5774 47.9521
lfingers 7.12502
lthumb 14.4642 77.4279
rfemur -10.1361 5.15637 23.7024
rtibia 37.2659
rfoot -17.432 2.25364
rtoes 17.1813
lfemur -13.4536 -13.1018 -17.9212
ltibia 42.1436
lfoot -13.7755 -4.3141
ltoes -13.5994
827
root 1.07029 17.8546 6.91449 -185.888 -5.89193 541.971
lowerback 20.6572 0.447762 0.56813
upperback 2.68571 0.449591 6.25522
thorax -8.69287 -0.0513461 6.49905
lowerneck -11.3013 -1.30408 -3.39067
upperneck 20.902 -1.20873 -3.95642
head 8.36434 -1.59712 -0.935968
rclavicle 6.75868e-015 -1.43125e-014
rhumerus -39.2774 -22.4824 -58.0993
rradius 66.1866
rwrist -3.90819
rhand -8.70627 2.22037
rfingers 7.12502
rthumb 17.2292 -27.0359
lclavicle 6.75868e-015 -1.43125e-014
lhumerus -47.8636 7.46845 83.7425
lradius 56.8299
lwrist 7.10087
lhand -11.6434 47.9097
lfingers 7.12502
lthumb 14.4006 77.3901
rfemur -10.0596 5.30527 23.4719
rtibia 37.2233
rfoot -17.3338 2.80265
rtoes 16.6032
lfemur -12.7355 -13.1846 -18.2276
ltibia 41.3815
lfoot -13.8441 -3.47135
ltoes -14.2953
828
root 1.04358 17.8634 6.90181 -185.929 -5.16027 541.976
lowerback 20.7148 0.413243 0.566626
upperback 2.70999 0.393154 6.17625
thorax -8.69015 -0.0819132 6.42775
lowerneck -11.6756 -1.06415 -3.32682
upperneck 21.339 -0.905028 -3.79956
head 8.58215 -1.45453 -0.874635
rclavicle 6.95746e-015 3.97569e-014
rhumerus -39.4116 -22.567 -57.5311
rradius 68.3384
rwrist -3.07239
rhand -7.80243 1.88437
rfingers 7.12502
rthumb 18.0989 -27.2936
lclavicle 6.95746e-015 3.97569e-014
lhumerus -48.0803 7.57341 83.6739
lradius 55.7397
lwrist 6.791
lhand -11.4745 47.9074
lfingers 7.12502
lthumb 14.5634 77.3762
rfemur -9.96722 5.4324 23.3962
rtibia 37.13
rfoot -17.211 3.32957
rtoes 16.3211
lfemur -12.0837 -13.067 -18.3561
ltibia 40.8775
lfoot -13.9983 -2.77928
ltoes -14.5356
829
root 1.01729 17.8711 6.89146 -185.92 -4.48944 542.049
lowerback 20.567 0.333002 0.552894
upperback 2.71963 0.271561 6.16469
thorax -8.58629 -0.143901 6.45045
lowerneck -11.44 -0.939776 -3.47172
upperneck 21.3696 -0.761453 -3.70996
head 8.55101 -1.39957 -0.804236
rclavicle -5.96354e-015 -6.67916e-014
rhumerus -39.4347 -22.6888 -56.9913
rradius 70.371
rwrist -1.94399
rhand -6.7859 1.85789
rfingers 7.12502
rthumb 19.0767 -27.2266
lclavicle -5.96354e-015 -6.67916e-014
lhumerus -48.3357 7.75492 83.6557
lradius 54.6504
lwrist 6.47347
lhand -11.0225 48.0901
lfingers 7.12502
lthumb 14.9988 77.5269
rfemur -9.94762 5.6172 23.4171
rtibia 37.016
rfoot -17.0923 3.64521
rtoes 15.8163
lfemur -11.575 -12.8873 -18.417
ltibia 40.5894
lfoot -14.1726 -2.55514
ltoes -13.38
830
root 0.987667 17.8747 6.88678 -185.823 -3.61734 542.117
lowerback 20.4126 0.340601 0.619212
upperback 2.80709 0.269946 6.08849
thorax -8.4046 -0.156399 6.31641
lowerneck -11.778 -0.772194 -3.372
upperneck 21.5314 -0.513842 -3.75135
head 8.66846 -1.28671 -0.814386
rclavicle 3.51849e-014 3.18055e-014
rhumerus -39.1623 -23.1656 -56.5116
rradius 72.2555
rwrist -1.13287
rhand -5.242 2.47848
rfingers 7.12502
rthumb 20.5609 -26.4527
lclavicle 3.51849e-014 3.18055e-014
lhumerus -48.4181 7.76697 83.6608
lradius 53.8434
lwrist 6.20654
lhand -10.8011 48.316
lfingers 7.12502
lthumb 15.2121 77.7367
rfemur -10.097 5.79366 23.3938
rtibia 36.9328
rfoot -16.9186 4.21175
rtoes 16.0881
lfemur -11.2003 -12.4148 -18.4854
ltibia 40.3993
lfoot -14.3058 -2.44228
ltoes -12.4037
831
root 0.956289 17.8698 6.88646 -185.825 -2.97415 542.213
lowerback 20.4464 0.247432 0.755182
upperback 2.85289 0.157916 5.99913
thorax -8.35894 -0.221446 6.16689
lowerneck -12.1806 -0.555856 -3.16604
upperneck 21.8481 -0.228608 -3.7605
head 8.85108 -1.15218 -0.829696
rclavicle 4.57205e-015 9.54166e-015
rhumerus -38.9483 -23.7268 -55.9764
rradius 74.1465
rwrist -0.607296
rhand -3.5001 2.87557
rfingers 7.12502
rthumb 22.2339 -25.8655
lclavicle 4.57205e-015 9.54166e-015
lhumerus -48.4638 7.84879 83.5724
lradius 52.894
lwrist 5.83742
lhand -10.6497 48.3625
lfingers 7.12502
lthumb 15.3579 77.7721
rfemur -10.163 5.94682 23.3984
rtibia 36.9347
rfoot -16.9041 4.63314
rtoes 16.516
lfemur -10.7815 -12.001 -18.5678
ltibia 40.1579
lfoot -14.7121 -1.94885
ltoes -12.2139
832
root 0.924493 17.8718 6.87981 -185.803 -2.4033 542.077
lowerback 20.3675 0.137925 0.665937
upperback 2.84934 -0.00887376 5.82149
thorax -8.30331 -0.295547 6.06078
lowerneck -11.8648 -1.35921 -2.16332
upperneck 21.5428 0.643658 -4.64052
head 8.70538 0.0384047 -1.07385
rclavicle 2.127e-014 1.43125e-014
rhumerus -38.8448 -24.4431 -55.4403
rradius 75.9284
rwrist -0.159962
rhand -2.17158 2.7848
rfingers 7.12502
rthumb 23.5088 -25.7987
lclavicle 2.127e-014 1.43125e-014
lhumerus -48.5724 7.94039 83.4207
lradius 51.6881
lwrist 5.64394
lhand -10.512 48.0092
lfingers 7.12502
lthumb 15.4906 77.4086
rfemur -10.2101 6.11076 23.1452
rtibia 37.002
rfoot -16.9965 4.85962
rtoes 16.1132
lfemur -10.4009 -11.5733 -18.9288
ltibia 39.8086
lfoot -15.2245 -0.998022
ltoes -12.9456
